<svg xmlns="http://www.w3.org/2000/svg" width="240" height="35.695" viewBox="0 0 240 35.695">
  <g id="Group_1297" data-name="Group 1297" transform="translate(-548.185 -46.485)">
    <g id="Group_1295" data-name="Group 1295" transform="translate(548.185 46.485)">
      <path id="Path_2169" data-name="Path 2169" d="M563.027,75.847a12.752,12.752,0,0,1,0-25.169V46.485a16.9,16.9,0,0,0,0,33.555Z" transform="translate(-548.185 -46.485)" fill="#333"/>
      <path id="Path_2170" data-name="Path 2170" d="M570.7,73.094a16.875,16.875,0,0,0-11.667-26.609v4.193a12.752,12.752,0,0,1,0,25.169v4.191a16.862,16.862,0,0,0,8.857-3.887l6.239,6.028h5.826Z" transform="translate(-540.041 -46.485)" fill="#c82021"/>
    </g>
    <g id="Group_1296" data-name="Group 1296" transform="translate(589.377 53.78)" style="isolation: isolate">
      <path id="Path_2171" data-name="Path 2171" d="M589.875,66.921a9.776,9.776,0,0,1-8.282,4.312,10.1,10.1,0,0,1,0-20.189,9.783,9.783,0,0,1,8.2,4.168l-3.4,2.341a5.771,5.771,0,0,0-4.8-2.568c-3.284,0-5.683,2.74-5.683,6.168a5.827,5.827,0,0,0,5.683,6.14,5.925,5.925,0,0,0,4.912-2.714Z" transform="translate(-571.714 -50.358)" fill="#333"/>
      <path id="Path_2172" data-name="Path 2172" d="M582.219,61.544a6.925,6.925,0,1,1,6.91,6.938A6.706,6.706,0,0,1,582.219,61.544Zm9.937,0a3.012,3.012,0,1,0-3.027,3.055A2.959,2.959,0,0,0,592.156,61.544Z" transform="translate(-563.828 -47.664)" fill="#333"/>
      <path id="Path_2173" data-name="Path 2173" d="M594.917,68.254h-3.971V54.917h3.971v1.942a4.45,4.45,0,0,1,3.855-2.227c3,0,4.883,1.857,4.883,5.655v7.967h-3.971V61.143c0-1.77-.97-2.656-2.313-2.656-1.4,0-2.454.686-2.454,2.714Z" transform="translate(-557.277 -47.664)" fill="#333"/>
      <path id="Path_2174" data-name="Path 2174" d="M603.195,62.771c-4-1.085-4.026-3.113-4-4.342.026-1.97,2.4-3.8,5.2-3.8,2.656,0,5.455,1.171,5.483,4.426h-3.74c-.03-1-.886-1.169-1.516-1.169-.856,0-1.427.4-1.4,1,.026.4.37.8,1.169,1l2.257.6c3.227.886,3.626,3.027,3.626,3.883,0,2.827-2.969,4.17-5.768,4.17-2.712,0-5.539-1.628-5.569-4.6h3.713a1.881,1.881,0,0,0,1.97,1.542c.886-.03,1.628-.429,1.628-1.115,0-.571-.341-.884-1.313-1.141Z" transform="translate(-551.277 -47.664)" fill="#333"/>
      <path id="Path_2175" data-name="Path 2175" d="M614.856,54.795h3.969V68.132h-3.969V66.3a4.058,4.058,0,0,1-3.454,2.113c-3,0-5.285-1.856-5.285-5.655V54.795h3.971v7.111a2.358,2.358,0,0,0,2.37,2.656c1.227,0,2.4-.686,2.4-2.714Z" transform="translate(-545.888 -47.542)" fill="#333"/>
      <path id="Path_2176" data-name="Path 2176" d="M627.1,61.2v7.053h-3.971v-7.2a2.309,2.309,0,0,0-2.2-2.57c-1.2,0-2.313.686-2.313,2.714v7.053h-3.971V54.917h3.971v1.942a3.812,3.812,0,0,1,3.484-2.2c2.113,0,3.54.8,4.282,2.341a4.568,4.568,0,0,1,4-2.37c3.169,0,5.14,2.027,5.14,6.054v7.568h-3.941V61.143c0-1.742-1.028-2.656-2.2-2.656C628.128,58.487,627.1,59.259,627.1,61.2Z" transform="translate(-539.484 -47.664)" fill="#333"/>
      <path id="Path_2177" data-name="Path 2177" d="M640.358,65.826c-1.341,2-3.827,2.714-6.082,2.714a6.792,6.792,0,0,1-6.969-7,6.9,6.9,0,1,1,13.794.114c0,.341-.028.886-.056,1.227h-9.767c.2,1.542,1.884,2.227,3.284,2.227a3.69,3.69,0,0,0,2.913-1.255ZM637.1,60.4a2.7,2.7,0,0,0-2.8-2.285,2.918,2.918,0,0,0-2.971,2.285Z" transform="translate(-529.981 -47.664)" fill="#333"/>
      <path id="Path_2178" data-name="Path 2178" d="M639.89,68.254h-3.969V54.917h3.969v3.227c.686-2.484,2.4-3.512,3.771-3.512a4.926,4.926,0,0,1,2.283.485l-.714,3.57a4.511,4.511,0,0,0-2.027-.4c-2.285,0-3.312,1.8-3.312,5.312Z" transform="translate(-523.515 -47.664)" fill="#333"/>
      <path id="Path_2179" data-name="Path 2179" d="M657.145,70.85h-5.026l-4.4-6.8h-.944v6.8h-4.2V51.174h8.051a6.183,6.183,0,0,1,6.539,6.453,6.084,6.084,0,0,1-4.911,6.255ZM646.777,54.857V60.4h3.542a2.8,2.8,0,0,0,.114-5.541Z" transform="translate(-518.516 -50.26)" fill="#333"/>
      <path id="Path_2180" data-name="Path 2180" d="M661.6,66.74a5.109,5.109,0,0,1-3.883,1.772,6.941,6.941,0,0,1,0-13.879A4.9,4.9,0,0,1,661.6,56.4V54.917h3.941V68.254H661.6Zm-3.227-2a3.17,3.17,0,1,0,0-6.339,3.174,3.174,0,1,0,0,6.339Z" transform="translate(-512.26 -47.664)" fill="#333"/>
      <path id="Path_2181" data-name="Path 2181" d="M669.038,56.986v3.141h-2.8v10.2H662.3v-10.2h-2.426V56.986H662.3v-5.11h3.941v5.11Z" transform="translate(-505.536 -49.733)" fill="#333"/>
      <path id="Path_2182" data-name="Path 2182" d="M668.036,50.652a2.33,2.33,0,1,1,0,4.655,2.333,2.333,0,1,1,0-4.655Zm1.969,20.59h-3.941V57.905h3.941Z" transform="translate(-501.273 -50.652)" fill="#333"/>
      <path id="Path_2183" data-name="Path 2183" d="M672.967,68.254H669V54.917h3.971v1.942a4.45,4.45,0,0,1,3.855-2.227c3,0,4.883,1.857,4.883,5.655v7.967h-3.971V61.143c0-1.77-.97-2.656-2.313-2.656-1.4,0-2.455.686-2.455,2.714Z" transform="translate(-498.687 -47.664)" fill="#333"/>
      <path id="Path_2184" data-name="Path 2184" d="M683.958,71.337c3.025,0,3.855-2.083,3.683-4.741a4.514,4.514,0,0,1-4,1.943,6.96,6.96,0,0,1,0-13.907,4.552,4.552,0,0,1,4,1.942V54.917H691.5V66.4c0,5.739-2.8,8.51-7.537,8.51a7.108,7.108,0,0,1-6.568-4.142c1-.485,2.2-1.085,3.2-1.57A3.8,3.8,0,0,0,683.958,71.337ZM684.33,58.4a3.2,3.2,0,1,0,0,6.4,3.244,3.244,0,0,0,3.225-3.255A3.1,3.1,0,0,0,684.33,58.4Z" transform="translate(-492.686 -47.664)" fill="#333"/>
    </g>
  </g>
</svg>
