<svg width="116" height="69" viewBox="0 0 116 69" fill="none" xmlns="http://www.w3.org/2000/svg">
<path d="M61.2227 55.3371C62.7466 57.2419 63.2508 59.4045 62.7354 61.8247C62.22 64.2674 60.9762 66.1498 59.0042 67.472C57.1217 68.5925 55.0936 69.0967 52.9199 68.9847C50.7685 68.895 48.718 68.402 46.7684 67.5056C44.2361 66.3403 42.0735 64.7268 40.2807 62.6651C38.5103 60.6258 37.1209 58.3176 36.1125 55.7405C34.0956 50.4965 33.0872 45.0622 33.0872 39.4373C33.0199 37.7117 33.132 35.9638 33.4233 34.1934C32.5493 34.171 31.6866 34.0589 30.835 33.8572C29.8938 37.51 28.7621 41.0844 27.4399 44.5803C26.5883 46.8213 25.4566 48.8606 24.0448 50.6982C22.633 52.5134 20.8402 53.9589 18.6664 55.0345C16.5823 56.043 14.3525 56.6144 11.9771 56.7489C9.62406 56.9058 7.41669 56.3791 5.35498 55.169C3.47256 53.9365 2.15038 52.2781 1.38844 50.194C0.648917 48.1099 0.503253 45.981 0.95145 43.8072C1.33242 41.9248 2.11676 40.2328 3.30448 38.7314C4.51462 37.2075 6.12812 36.4344 8.14501 36.412C8.5708 36.4568 8.88454 36.6024 9.08622 36.8489C9.51201 37.2523 9.56804 37.7565 9.2543 38.3616C8.582 39.5045 8.49236 40.5914 8.98538 41.6222C9.50081 42.6307 10.3412 43.3702 11.5065 43.8408C14.1508 44.7596 16.3694 44.1658 18.1622 42.0592C18.9914 40.8715 19.6525 39.5493 20.1455 38.0927C20.6385 36.6361 21.0979 35.213 21.5237 33.8236C22.577 30.6862 23.5854 27.5377 24.549 24.3779C25.2885 21.7783 26.1401 19.2236 27.1037 16.7137C27.5071 15.638 27.9889 14.6072 28.5492 13.6211C29.1318 12.6351 29.9274 11.8396 30.9358 11.2345C32.4149 10.3829 33.8939 10.3717 35.373 11.2009C36.0229 11.6491 36.3926 12.1869 36.4823 12.8144C36.5719 13.4419 36.5271 14.1142 36.3478 14.8313C35.8548 16.7809 35.2609 18.697 34.5662 20.5794C33.7595 23.0893 33.0311 25.6216 32.3813 28.1763C32.1572 28.9831 31.9331 29.7898 31.709 30.5966C33.9051 30.4173 35.81 29.4425 37.4235 27.6721C39.0594 25.9017 40.2359 24.0529 40.953 22.1257C41.8046 19.9071 42.0959 17.6997 41.827 15.5036C41.5581 13.285 40.5384 11.3465 38.7681 9.68822C37.3787 8.47808 35.81 7.62651 34.062 7.13349C32.314 6.61807 30.5324 6.4612 28.7172 6.66289C26.8124 6.86458 24.9972 7.42482 23.2717 8.34363C21.5461 9.26243 20.1455 10.5286 19.0698 12.1421C18.4647 13.0833 17.9829 14.2374 17.6244 15.6044C17.2882 16.949 17.277 18.204 17.5908 19.3693C17.9269 20.5346 18.8009 21.3077 20.2127 21.6887C20.8178 21.8904 21.1315 22.305 21.1539 22.9324C21.1315 24.4339 20.6273 25.7337 19.6413 26.8317C18.6552 27.9074 17.4451 28.7254 16.0109 29.2856C14.599 29.8459 13.2096 30.0924 11.8426 30.0252C9.4896 29.7786 7.6632 28.8486 6.36343 27.2351C5.06366 25.5992 4.40257 23.6383 4.38016 21.3525C4.42498 17.5429 5.54547 14.0805 7.74163 10.9656C9.0414 9.24002 10.5765 7.76097 12.3469 6.52843C14.1396 5.27348 16.0333 4.23142 18.0278 3.40226C22.2184 1.65429 26.5883 0.825123 31.1375 0.914762C35.9332 0.959582 40.3143 2.33779 44.2809 5.04938C45.8272 6.10264 47.1493 7.35759 48.2474 8.81423C49.3455 10.2709 50.1074 11.918 50.5332 13.7556C51.2952 17.2067 50.8918 20.5122 49.3231 23.672C48.1354 25.9802 46.5667 28.0083 44.617 29.7562C42.6674 31.5042 40.4712 32.7592 38.0285 33.5211C38.163 36.2999 38.7793 38.9891 39.8773 41.5886C40.9754 44.1882 42.3873 46.5524 44.1128 48.6813C46.1297 51.2137 48.5163 53.2866 51.2728 54.9001C52.4605 55.5948 53.8163 56.0654 55.3401 56.3119C56.8864 56.5584 58.2422 56.2335 59.4075 55.3371C60.035 54.8441 60.6401 54.8441 61.2227 55.3371Z" fill="#FF0000"/>
<path d="M58.8899 50.6512C57.4243 50.6512 56.0662 50.2545 54.8158 49.4612C53.5787 48.6545 52.7249 47.4981 52.2543 45.9922C52.0257 45.1451 51.9114 44.2711 51.9114 43.3702C51.9114 41.9987 52.14 40.6205 52.5972 39.2356C53.0409 37.8507 53.6594 36.5868 54.4527 35.4439C55.246 34.3009 56.1805 33.3799 57.2562 32.6807C58.3319 31.9815 59.4949 31.6319 60.7454 31.6319C61.7673 31.6319 62.7421 31.9143 63.6699 32.479C64.5977 33.0438 65.196 33.8976 65.4649 35.0405C65.5321 35.3632 65.5658 35.6859 65.5658 36.0086C65.5658 36.8422 65.3842 37.649 65.0212 38.4288C64.6716 39.1953 64.2144 39.8944 63.6497 40.5264C63.0581 41.2121 62.3186 41.8172 61.4311 42.3416C60.5437 42.866 59.6361 43.1282 58.7083 43.1282C58.426 43.1282 58.1503 43.0946 57.8814 43.0273C58.3924 43.6996 59.0579 44.224 59.8781 44.6005C60.7118 44.9636 61.5522 45.1451 62.3992 45.1451C63.2194 45.1451 63.959 44.977 64.6178 44.6409C65.2901 44.2913 65.8952 43.8475 66.433 43.3097C66.9843 42.7584 67.4885 42.1534 67.9457 41.4945C68.6045 40.5533 69.1289 39.5381 69.5189 38.449C69.5861 38.2742 69.6869 38.1465 69.8214 38.0658C69.9693 37.9717 70.1172 37.9246 70.2651 37.9246C70.4668 37.9246 70.6483 37.9851 70.8097 38.1061C70.971 38.2272 71.0517 38.3885 71.0517 38.5902C71.0517 38.6709 71.0382 38.765 71.0114 38.8726C70.1239 41.3869 68.8802 43.6862 67.2801 45.7703C65.68 47.841 63.7438 49.32 61.4715 50.2075C60.6244 50.5033 59.7638 50.6512 58.8899 50.6512ZM57.1957 40.3449C58.6747 40.2239 59.9185 39.5986 60.9269 38.4692C61.3034 38.0389 61.6328 37.5549 61.9152 37.017C62.1976 36.4657 62.3387 35.9077 62.3387 35.343C62.285 34.6707 61.8883 34.3346 61.1488 34.3346C60.8261 34.3346 60.5101 34.4085 60.2008 34.5564C59.8916 34.6909 59.6227 34.859 59.3941 35.0606C58.6411 35.6792 58.0898 36.4657 57.7402 37.4204C57.3906 38.3751 57.2091 39.3499 57.1957 40.3449Z" fill="#FF0000"/>
<path d="M77.3242 50.9739C75.2939 50.9739 73.3308 50.8461 71.4349 50.5907C70.8971 50.5234 70.4197 50.3419 70.0029 50.0461C69.5861 49.7503 69.3037 49.3268 69.1558 48.7755C69.0886 48.5334 69.055 48.2847 69.055 48.0292C69.055 47.7469 69.0886 47.4712 69.1558 47.2023C69.1827 46.7586 69.3239 46.335 69.5794 45.9317C69.8348 45.5148 70.1038 45.1451 70.3861 44.8224C71.6097 43.3837 72.9879 42.0122 74.5207 40.7079C76.0536 39.3902 77.5528 38.0255 79.0184 36.6136C79.4218 36.2237 79.7915 35.8271 80.1277 35.4237C79.3882 35.2085 78.6419 35.027 77.8889 34.8791C77.136 34.7178 76.4166 34.6371 75.7309 34.6371C74.9913 34.6371 74.3123 34.785 73.6938 35.0808C73.0753 35.3632 72.5375 35.8271 72.0803 36.4725C71.6097 37.1985 71.2735 37.9784 71.0719 38.812C71.0046 39.0003 70.8971 39.1415 70.7492 39.2356C70.6147 39.3163 70.4735 39.3566 70.3256 39.3566C70.1239 39.3566 69.9424 39.2961 69.7811 39.1751C69.6197 39.0406 69.539 38.8591 69.539 38.6305L69.5794 38.4087C69.9558 36.9969 70.5139 35.6657 71.2534 34.4152C71.6836 33.5816 72.2685 32.8824 73.0081 32.3177C73.5862 31.9546 74.2115 31.7126 74.8838 31.5916C76.0401 31.3496 77.2234 31.2286 78.4335 31.2286C80.0201 31.2286 81.5798 31.3697 83.1127 31.6521C83.6102 31.7328 84.1211 31.8538 84.6455 32.0151C85.1833 32.163 85.6271 32.4252 85.9766 32.8017C86.2859 33.2051 86.4405 33.6488 86.4405 34.1329C86.4405 34.5497 86.3531 34.9732 86.1783 35.4035C86.017 35.8203 85.8287 36.1968 85.6136 36.533C84.8069 37.7565 83.8791 38.9062 82.8303 39.9818C81.795 41.0441 80.7462 42.0727 79.684 43.0677C78.7427 43.9954 77.8083 44.9232 76.8805 45.851L78.1713 45.8913C79.3008 45.8913 80.41 45.7905 81.4992 45.5888C83.4757 45.1585 85.1094 44.3114 86.4002 43.0475C87.7044 41.7836 88.686 40.2306 89.3448 38.3885C89.3986 38.2003 89.4928 38.0658 89.6272 37.9851C89.7617 37.891 89.9096 37.8439 90.0709 37.8439C90.2726 37.8439 90.4541 37.9112 90.6155 38.0456C90.7903 38.1666 90.8777 38.328 90.8777 38.5297C90.8777 38.6104 90.8642 38.6978 90.8373 38.7919C90.676 39.3297 90.4609 39.8608 90.1919 40.3852C89.2776 42.4693 88.0809 44.3787 86.6019 46.1132C85.2707 47.7401 83.6976 49.0646 81.8824 50.0864C81.1697 50.4495 80.4235 50.6848 79.6436 50.7924C78.8772 50.9134 78.1041 50.9739 77.3242 50.9739Z" fill="#FF0000"/>
<path d="M104.129 50.6713C103.389 50.6713 102.65 50.4831 101.91 50.1066C101.117 49.6763 100.565 49.1116 100.256 48.4124C99.9469 47.7132 99.7923 46.967 99.7923 46.1737C99.7923 45.7838 99.8192 45.3938 99.873 45.0039L99.4293 45.9317C99.0125 46.8594 98.4948 47.6998 97.8763 48.4528C97.2578 49.2057 96.4712 49.7906 95.5165 50.2075C94.8173 50.4898 94.1181 50.631 93.419 50.631C92.5988 50.631 91.8122 50.4495 91.0592 50.0864C90.3197 49.7234 89.7012 49.1923 89.2037 48.4931C88.7331 47.8074 88.3969 47.0746 88.1952 46.2947C87.9935 45.5014 87.8927 44.7014 87.8927 43.8946C87.8927 41.3264 88.5852 38.8927 89.9701 36.5935C91.355 34.2808 93.2509 32.7009 95.6577 31.8538C96.3972 31.6252 97.1502 31.5109 97.9166 31.5109C99.0461 31.5109 100.055 31.7664 100.942 32.2773C101.843 32.7883 102.542 33.5614 103.04 34.5968L103.382 33.7497C103.544 33.306 103.739 32.8959 103.967 32.5194C104.209 32.1429 104.566 31.8672 105.036 31.6924C105.413 31.5714 105.823 31.5109 106.267 31.5109C106.791 31.5109 107.295 31.6118 107.779 31.8135C108.277 32.0017 108.62 32.3244 108.808 32.7816L108.848 32.9832C108.848 33.158 108.794 33.306 108.687 33.427C108.579 33.5345 108.451 33.7228 108.304 33.9917C107.86 34.9732 107.504 35.9951 107.235 37.0574C106.979 37.9313 106.737 38.8188 106.509 39.7197C106.293 40.6071 106.166 41.5281 106.125 42.4828C106.125 42.9399 106.219 43.35 106.408 43.7131C106.596 44.0627 106.925 44.3249 107.396 44.4997C107.692 44.5938 107.988 44.6409 108.283 44.6409C108.969 44.6409 109.594 44.4392 110.159 44.0358C110.724 43.619 111.228 43.0946 111.672 42.4626C112.129 41.8307 112.526 41.1651 112.862 40.4659C113.211 39.7533 113.507 39.0877 113.749 38.4692C113.749 38.3482 113.83 38.2204 113.991 38.086C114.153 37.9515 114.321 37.8843 114.495 37.8843C114.697 37.8843 114.879 37.9448 115.04 38.0658C115.215 38.1868 115.302 38.3482 115.302 38.5499C115.302 38.644 115.289 38.7381 115.262 38.8322C114.253 41.5617 112.788 44.1635 110.865 46.6376C110.341 47.2964 109.722 47.9351 109.009 48.5536C108.297 49.1587 107.524 49.6629 106.69 50.0663C105.856 50.4697 105.003 50.6713 104.129 50.6713ZM95.2745 43.7534C95.8392 43.7534 96.3569 43.5383 96.8275 43.108C97.2981 42.6643 97.6948 42.2071 98.0175 41.7365C99.0931 40.2709 99.9066 38.6776 100.458 36.9565C100.633 36.4456 100.72 35.9413 100.72 35.4439C100.72 35.3228 100.713 35.2018 100.7 35.0808C100.243 34.4623 99.6444 34.153 98.9049 34.153C98.2191 34.2068 97.6141 34.4623 97.0897 34.9195C96.5653 35.3632 96.1216 35.8741 95.7585 36.4523C95.0459 37.5414 94.535 38.7247 94.2257 40.002C94.0375 40.6205 93.9433 41.2525 93.9433 41.8979C93.9433 42.2609 93.9971 42.6105 94.1047 42.9467C94.2123 43.229 94.3669 43.4374 94.5686 43.5719C94.7837 43.6929 95.019 43.7534 95.2745 43.7534Z" fill="#FF0000"/>
</svg>
