<svg width="104" height="40" viewBox="0 0 104 40" fill="none" xmlns="http://www.w3.org/2000/svg">
<path d="M19.6277 8.75518H5.10805V13.8987H18.0102V20.1688H5.10805V31.1199H0V2.49072H19.6277V8.75518Z" fill="#38225C"/>
<path d="M26.3052 7.17878C25.2268 7.17878 24.3215 6.85385 23.5894 6.20399C23.2408 5.91276 22.9613 5.54768 22.7711 5.13517C22.5809 4.72266 22.4848 4.27303 22.4897 3.81882C22.4842 3.36709 22.5804 2.91991 22.7713 2.51044C22.9621 2.10098 23.2427 1.73973 23.5922 1.4535C24.3244 0.817834 25.2296 0.5 26.308 0.5C27.4147 0.5 28.3347 0.817834 29.0678 1.4535C29.4163 1.74029 29.696 2.10174 29.8861 2.51116C30.0762 2.92057 30.1719 3.36746 30.166 3.81882C30.1759 4.27756 30.0824 4.73265 29.8922 5.15025C29.7021 5.56786 29.4203 5.93724 29.0678 6.23095C28.3318 6.86284 27.411 7.17878 26.3052 7.17878ZM23.9413 31.1143V9.95274H28.6705V31.1086L23.9413 31.1143Z" fill="#38225C"/>
<path d="M50.2405 9.95262V14.0178C49.4898 12.6376 48.388 11.48 47.0465 10.6621C45.6938 9.85337 44.1429 9.43678 42.5671 9.45884C39.6347 9.45884 37.2003 10.4823 35.264 12.5294C33.3276 14.5764 32.3604 17.1228 32.3623 20.1687C32.3623 23.2373 33.3295 25.7952 35.264 27.8422C37.1984 29.8892 39.6328 30.9127 42.5671 30.9127C44.1458 30.9351 45.6987 30.5106 47.0465 29.6882C48.3792 28.8667 49.4789 27.7172 50.2405 26.3495V28.7971C50.2405 30.3181 49.6876 31.528 48.5818 32.4266C47.476 33.3253 45.9828 33.7746 44.1023 33.7746C41.3355 33.7746 39.4266 33.0278 38.3756 31.5342H33.4393C34.0749 33.9936 35.3335 35.9365 37.215 37.363C39.0964 38.7895 41.3922 39.5018 44.1023 39.4999C47.3932 39.4999 50.0338 38.5246 52.0241 36.5741C54.0143 34.6236 55.0104 32.045 55.0123 28.8382V9.95262H50.2405ZM47.0934 24.2381C47.0664 24.2694 47.0125 24.3148 46.994 24.3318C36.5154 32.9332 37.3852 14.8422 37.4179 14.6194C37.4179 14.6194 57.2371 13.5921 47.0934 24.2381Z" fill="#38225C"/>
<path d="M73.1799 2.49072C76.0555 2.49072 78.4677 3.43098 80.4163 5.3115C82.3649 7.19202 83.3402 9.52896 83.3421 12.3223C83.3421 15.1157 82.3668 17.4526 80.4163 19.3331C78.4658 21.2136 76.0536 22.1539 73.1799 22.1539H65.173V31.1143H60.0649V2.49072H73.1799ZM73.055 15.8894C74.5761 15.8894 75.7859 15.5645 76.6846 14.9146C77.5832 14.2648 78.0325 13.4007 78.0325 12.3223C78.0325 11.2439 77.5832 10.3798 76.6846 9.72997C75.7859 9.08011 74.5761 8.75518 73.055 8.75518H65.173V15.8894H73.055Z" fill="#4DC677"/>
<path d="M99.3957 7.17878C98.3173 7.17878 97.4116 6.85385 96.6785 6.20399C96.3299 5.91276 96.0504 5.54768 95.8602 5.13517C95.6701 4.72266 95.574 4.27303 95.5789 3.81882C95.573 3.36732 95.6688 2.92028 95.8591 2.51083C96.0495 2.10138 96.3295 1.74001 96.6785 1.4535C97.4107 0.817834 98.3164 0.5 99.3957 0.5C100.501 0.5 101.42 0.817834 102.154 1.4535C102.503 1.74022 102.783 2.10162 102.973 2.51103C103.163 2.92043 103.259 3.36737 103.254 3.81882C103.263 4.27766 103.17 4.73278 102.979 5.15038C102.789 5.56798 102.507 5.93731 102.154 6.23095C101.421 6.86284 100.502 7.17878 99.3957 7.17878ZM97.0304 31.1143V9.95274H101.76V31.1086L97.0304 31.1143Z" fill="#4DC677"/>
<path d="M89.4406 7.17878C88.3623 7.17878 87.4565 6.85385 86.7234 6.20399C86.3748 5.91276 86.0954 5.54768 85.9052 5.13517C85.715 4.72266 85.6189 4.27303 85.6238 3.81882C85.6179 3.36732 85.7137 2.92028 85.904 2.51083C86.0944 2.10138 86.3744 1.74001 86.7234 1.4535C87.4556 0.817834 88.3613 0.5 89.4406 0.5C90.5455 0.5 91.4649 0.817834 92.199 1.4535C92.5478 1.74022 92.8276 2.10162 93.018 2.51103C93.2083 2.92043 93.3042 3.36737 93.2986 3.81882C93.3083 4.27766 93.2145 4.73278 93.0241 5.15038C92.8337 5.56798 92.5517 5.93731 92.199 6.23095C91.4659 6.86284 90.5464 7.17878 89.4406 7.17878ZM87.0753 31.1143V9.95274H91.8045V31.1086L87.0753 31.1143Z" fill="#4DC677"/>
</svg>
